<?xml version="1.0" encoding="utf-8"?>
<!-- Generator: Adobe Illustrator 22.1.0, SVG Export Plug-In . SVG Version: 6.00 Build 0)  -->
<svg version="1.1" id="Capa_1" xmlns="http://www.w3.org/2000/svg" xmlns:xlink="http://www.w3.org/1999/xlink" x="0px" y="0px"
	 viewBox="0 0 41.2 41.2" style="enable-background:new 0 0 41.2 41.2;" xml:space="preserve">
<g>
	<path d="M33.5,36.8c0.1,0.3,0.2,0.5,0.2,0.8c0,0.4-0.1,0.7-0.3,1.1c-0.2,0.3-0.5,0.6-0.9,0.8l-1.7,0.8c-0.7,0.3-1.4,0.5-2,0.7
		s-1.4,0.2-2.1,0.2c-1.1,0-2.2-0.2-3.3-0.6s-2.1-0.9-3.1-1.6s-1.9-1.5-2.8-2.5c-0.9-1-1.6-2.1-2.3-3.3c-0.4-0.7-0.9-1.4-1.4-2.3
		c-0.4-0.7-0.9-1.6-1.4-2.6c-0.5-1-1.1-2.1-1.6-3.4c-0.5-1.2-1-2.3-1.3-3.2c-0.3-0.9-0.6-1.7-0.7-2.3c-0.2-0.7-0.3-1.3-0.4-1.8
		c-0.3-0.9-0.5-1.9-0.6-2.8c-0.1-0.9-0.2-1.9-0.2-2.8c0-1.2,0.1-2.4,0.4-3.5S8.5,6.3,9,5.4c0.5-1,1.1-1.8,1.9-2.6s1.7-1.4,2.7-1.8
		l1.7-0.8C15.6,0.1,15.8,0,16.1,0c0.4,0,0.7,0.1,1.1,0.3c0.3,0.2,0.6,0.5,0.7,0.9l3.3,7.5c0.1,0.3,0.2,0.5,0.2,0.8
		c0,0.4-0.1,0.8-0.3,1.1s-0.5,0.6-0.9,0.8l-3.4,1.6c-0.4,0.2-0.8,0.5-1,0.9c-0.2,0.4-0.4,0.8-0.4,1.3c0,0.3,0.1,0.7,0.2,1l5.5,12.7
		c0.2,0.5,0.5,0.8,0.9,1.1c0.4,0.2,0.8,0.3,1.2,0.3c0.3,0,0.6-0.1,0.9-0.2l3.4-1.6c0.3-0.1,0.5-0.2,0.8-0.2c0.4,0,0.7,0.1,1.1,0.3
		s0.6,0.5,0.7,0.9L33.5,36.8z"/>
</g>
</svg>
