<?xml version="1.0" encoding="utf-8"?>
<!-- Generator: Adobe Illustrator 22.1.0, SVG Export Plug-In . SVG Version: 6.00 Build 0)  -->
<svg version="1.1" id="Layer_10" xmlns="http://www.w3.org/2000/svg" xmlns:xlink="http://www.w3.org/1999/xlink" x="0px" y="0px"
	 viewBox="0 0 422.8 113.4" style="enable-background:new 0 0 422.8 113.4;" xml:space="preserve">
<style type="text/css">
	.st0{fill:#BABCBE;}
	.st1{fill:#A6A7AA;}
	.st2{fill:#919395;}
	.st3{fill:#008284;}
	.st4{fill:#009396;}
	.st5{fill:#00A8AB;}
	.st6{fill:#6D6F70;}
	.st7{fill-rule:evenodd;clip-rule:evenodd;fill:#008082;}
</style>
<g>
	<g>
		<g>
			<path class="st0" d="M33.6,50C28.9,52.2,18,58.6,18,58.6s-6.4-4.9-6.5-4.9c0,0,8.6-8.4,18.9-11.5c1.3-0.4,5.1-1.5,6.8,1.9
				C38.9,47.6,35.1,49.3,33.6,50z"/>
			<path class="st1" d="M11.8,49.9c0,0,4.7-6.8,22.9-13.6c2.4-0.9,11.1-4.2,7.6-12.4c-1.6-3.8-6-3.6-12.3-1.2
				C17.2,27.5,6,40.1,6,40.1S6,46.8,11.8,49.9z"/>
			<path class="st2" d="M42.3,12.9C15.2,21,6,35.9,6,35.9c-1.9-5,2.5-11,2.5-11C16.7,13.2,30.3,7.1,39.8,4.2c0,0,4.4-1.3,5.7,2.8
				C46.9,11.6,42.3,12.9,42.3,12.9z"/>
			<path class="st3" d="M17,49.5c0,0,7.2,3.9,5.9,13.5c-1.3,9.6-7.8,8.6-10.4,7.5C9.9,69.3-0.1,62,0.2,49.5c0,0-0.1-12.6,8.3-24.6
				C8.4,24.9-1.5,38.3,17,49.5z"/>
			<path class="st4" d="M0.2,55.6c0,0-1.6,12.2,4.6,27.4c0,0,5.5,11.5,24.2,16.4c1.5,0.4,3.1,0.6,4.7,0.5c2.9-0.2,6.7-1.5,6.2-6.5
				c-0.7-7.2-4.8-11-10.7-12.3C23.2,79.6,1.5,74.6,0.2,55.6z"/>
			<path class="st5" d="M4.8,87.2c0,0,8.1,17.5,41.1,19c0,0,3.7-0.1,4.8,3.1c1.1,3.2-1.7,4.2-3.9,4.1c0,0-22.6,1.2-35.5-14.6
				C9.2,96.2,6.5,91.8,4.8,87.2z"/>
		</g>
		<g>
			<path class="st3" d="M98.4,87.1c0,0-2.4,1.9-1.7,4.7c0.6,2.7,2.3,2.7,4,1.3c1.7-1.3,9.2-9.5,11-17.7c1.3-6.1,1.3-11.7,0.9-17.7
				C112.5,57.6,113.5,75,98.4,87.1z"/>
			<path class="st2" d="M92.2,33.8c0,0-2.3-3.1-12.9-3.5c-3.6-0.1-4.9,1.2-5.1,3.8c-0.2,2.5,2.6,3.8,4.7,4.2
				c2.3,0.3,9.5,2.2,9.5,2.2S91.8,36.4,92.2,33.8z"/>
			<path class="st1" d="M96,19.6c0,0-6.7-6-23.6-6.8c-3.4-0.2-8,0.7-8.4,5.5c-0.5,5.8,4,7.5,6.6,7.8c16,1.7,21.7,4.9,21.7,4.9
				S97.7,26.2,96,19.6z"/>
			<path class="st4" d="M76.2,74.3c0,0-10.9,4.1-8,14.3s13.7,4.8,13.7,4.8s29.4-12.8,30.8-35.3c0,0,0.3-10.2-5.9-24.3
				C106.8,33.8,116.1,56.1,76.2,74.3z"/>
			<path class="st0" d="M61.7,9c15.4,0,38.2,3.7,45.4,22.4c0,0-4-14.6-21.2-25.4c0,0-10.3-5.2-24.9-6c-1.2-0.1-5.2-0.1-5.2,4.2
				C55.7,7.8,59,9,61.7,9z"/>
			<path class="st5" d="M59.4,50.9c0,0,23.5-6.3,32.6-21.2S87.4,7.4,85.9,6c0,0,12.2,5.5,20.3,22.3c8.1,16.7-12,36.9-40.1,45.6
				c0,0-14.9,5.4-17.6-7.9C45.8,52.9,59.4,50.9,59.4,50.9z"/>
		</g>
	</g>
	<g>
		<g>
			<path class="st6" d="M135.6,2.1c1-1.4,2.9-2.1,5.7-2.1c0.3,0,0.5,0,0.8,0c0.3,0,0.6,0,1,0.1v3.8c-0.4,0-0.8,0-0.9-0.1
				c-0.2,0-0.4,0-0.6,0c-1.3,0-2,0.3-2.3,1c-0.2,0.7-0.4,2.3-0.4,5h4.2v3.3h-4.2v21.4h-4.2V13.1h-3.5V9.8h3.5V5.9
				C134.7,4.2,135,2.9,135.6,2.1z"/>
			<path class="st6" d="M151.2,9.7v16.4c0,1.3,0.2,2.3,0.6,3.1c0.7,1.5,2.1,2.2,4.2,2.2c2.9,0,4.9-1.3,6-3.9
				c0.6-1.4,0.9-3.3,0.9-5.7V9.7h4.2v24.8h-4l0-3.7c-0.5,0.9-1.2,1.7-2,2.4c-1.6,1.3-3.6,1.9-5.9,1.9c-3.6,0-6-1.2-7.3-3.5
				c-0.7-1.3-1.1-3-1.1-5.1V9.7H151.2z"/>
			<path class="st6" d="M173.7,9.7h4v3.5c1.2-1.5,2.4-2.5,3.8-3.1c1.3-0.6,2.8-0.9,4.4-0.9c3.6,0,6,1.2,7.2,3.7c0.7,1.3,1,3.3,1,5.8
				v15.9h-4.3V18.8c0-1.5-0.2-2.7-0.7-3.7c-0.7-1.5-2.1-2.3-4.1-2.3c-1,0-1.8,0.1-2.5,0.3c-1.2,0.3-2.2,1-3,2
				c-0.7,0.8-1.2,1.7-1.4,2.5c-0.2,0.9-0.3,2.1-0.3,3.7v13h-4.2V9.7z"/>
			<path class="st6" d="M214.2,10.5c0.7,0.5,1.6,1.3,2.6,2.4V0.4h4.1v34.1H217V31c-1,1.5-2.1,2.6-3.5,3.3c-1.3,0.7-2.9,1-4.6,1
				c-2.8,0-5.2-1.2-7.3-3.5c-2-2.3-3.1-5.4-3.1-9.3c0-3.6,0.9-6.7,2.8-9.4s4.5-4,8-4C211.3,9.3,212.9,9.7,214.2,10.5z M204.7,29
				c1.1,1.8,3,2.7,5.5,2.7c2,0,3.6-0.8,4.8-2.5c1.3-1.7,1.9-4,1.9-7.1c0-3.1-0.6-5.4-1.9-6.9c-1.3-1.5-2.9-2.3-4.8-2.3
				c-2.1,0-3.8,0.8-5.2,2.4c-1.3,1.6-2,4-2,7.1C203,25,203.6,27.2,204.7,29z"/>
			<path class="st6" d="M240.5,19.5c1-0.1,1.6-0.5,1.9-1.2c0.2-0.4,0.3-0.9,0.3-1.6c0-1.4-0.5-2.4-1.5-3.1c-1-0.6-2.5-1-4.4-1
				c-2.2,0-3.8,0.6-4.7,1.8c-0.5,0.6-0.9,1.6-1,2.9h-3.9c0.1-3.1,1.1-5.2,3-6.4s4.2-1.8,6.7-1.8c3,0,5.4,0.6,7.2,1.7
				c1.8,1.1,2.7,2.8,2.7,5.2v14.3c0,0.4,0.1,0.8,0.3,1c0.2,0.3,0.6,0.4,1.1,0.4c0.2,0,0.4,0,0.6,0c0.2,0,0.5-0.1,0.7-0.1v3.1
				c-0.7,0.2-1.2,0.3-1.5,0.3c-0.3,0-0.8,0.1-1.4,0.1c-1.5,0-2.5-0.5-3.2-1.5c-0.3-0.5-0.6-1.3-0.7-2.3c-0.9,1.1-2.1,2.1-3.7,2.9
				c-1.6,0.8-3.4,1.2-5.3,1.2c-2.3,0-4.2-0.7-5.7-2.1c-1.5-1.4-2.2-3.1-2.2-5.2c0-2.3,0.7-4.1,2.2-5.3c1.5-1.3,3.4-2,5.7-2.3
				L240.5,19.5z M231.6,30.7c0.9,0.7,1.9,1,3.2,1c1.5,0,2.9-0.3,4.3-1c2.3-1.1,3.5-3,3.5-5.5v-3.4c-0.5,0.3-1.2,0.6-2,0.8
				s-1.6,0.4-2.4,0.5l-2.6,0.3c-1.5,0.2-2.7,0.5-3.4,0.9c-1.3,0.7-1.9,1.9-1.9,3.5C230.3,29.1,230.7,30,231.6,30.7z"/>
			<path class="st6" d="M254.6,2.8h4.3v6.9h4v3.4h-4v16.2c0,0.9,0.3,1.4,0.9,1.7c0.3,0.2,0.9,0.3,1.6,0.3c0.2,0,0.4,0,0.7,0
				c0.2,0,0.5,0,0.8-0.1v3.3c-0.5,0.1-1,0.2-1.5,0.3c-0.5,0.1-1.1,0.1-1.7,0.1c-2,0-3.3-0.5-4-1.5c-0.7-1-1.1-2.3-1.1-3.9V13.1h-3.4
				V9.7h3.4V2.8z M255,45.9c0.9-0.2,1.5-0.8,1.8-1.8c0.2-0.5,0.3-1.1,0.3-1.6c0-0.1,0-0.2,0-0.2c0-0.1,0-0.1,0-0.2h-2v-4h4v3.7
				c0,1.5-0.3,2.8-0.9,3.9c-0.6,1.1-1.6,1.8-3.1,2.1V45.9z"/>
			<path class="st6" d="M267.1,0.5h4.3v4.7h-4.3V0.5z M267.1,9.8h4.3v24.7h-4.3V9.8z"/>
			<path class="st6" d="M291.2,19.5c1-0.1,1.6-0.5,1.9-1.2c0.2-0.4,0.3-0.9,0.3-1.6c0-1.4-0.5-2.4-1.5-3.1c-1-0.6-2.5-1-4.4-1
				c-2.2,0-3.8,0.6-4.7,1.8c-0.5,0.6-0.9,1.6-1,2.9h-3.9c0.1-3.1,1.1-5.2,3-6.4c1.9-1.2,4.2-1.8,6.7-1.8c3,0,5.4,0.6,7.2,1.7
				c1.8,1.1,2.7,2.8,2.7,5.2v14.3c0,0.4,0.1,0.8,0.3,1c0.2,0.3,0.6,0.4,1.1,0.4c0.2,0,0.4,0,0.6,0s0.5-0.1,0.7-0.1v3.1
				c-0.7,0.2-1.2,0.3-1.5,0.3c-0.3,0-0.8,0.1-1.4,0.1c-1.5,0-2.5-0.5-3.2-1.5c-0.3-0.5-0.6-1.3-0.7-2.3c-0.9,1.1-2.1,2.1-3.7,2.9
				c-1.6,0.8-3.4,1.2-5.3,1.2c-2.3,0-4.2-0.7-5.7-2.1c-1.5-1.4-2.2-3.1-2.2-5.2c0-2.3,0.7-4.1,2.2-5.3c1.5-1.3,3.4-2,5.7-2.3
				L291.2,19.5z M282.3,30.7c0.9,0.7,1.9,1,3.2,1c1.5,0,2.9-0.3,4.3-1c2.3-1.1,3.5-3,3.5-5.5v-3.4c-0.5,0.3-1.2,0.6-2,0.8
				s-1.6,0.4-2.4,0.5l-2.6,0.3c-1.5,0.2-2.7,0.5-3.4,0.9c-1.3,0.7-1.9,1.9-1.9,3.5C281,29.1,281.4,30,282.3,30.7z"/>
		</g>
		<path class="st7" d="M141.2,68.2L141.2,68.2c0.9-1,1.9-1.8,3-2.5c2.3-1.4,4.9-2.2,7.6-2.2c1.8,0,3.5,0.4,5.2,1.1
			c1.5,0.7,2.9,1.6,4,2.9c0.7,0.8,1.3,1.8,1.8,2.9c1.3-1.8,2.8-3.4,4.7-4.6c2.4-1.5,4.9-2.3,7.7-2.3c2.5,0,4.8,0.6,6.9,2
			c2.1,1.4,3.5,3.2,4.5,5.5c1.2,2.9,1.4,6.9,1.4,10.1v19.8h-6.8V81.1c0-1.9,0-5.4-0.7-7.2c-0.4-1.2-1.2-2.1-2.3-2.8
			c-1.2-0.8-2.5-1.1-3.9-1.1c-1.9,0-3.6,0.6-5.2,1.7c-1.6,1.1-2.8,2.7-3.5,4.5c-1.1,2.7-1.1,7.2-1.1,10.1v14.5h-6.7V82.2
			c0-2.1,0-6-0.7-8c-0.4-1.2-1.2-2.2-2.3-3c-1.2-0.8-2.5-1.1-3.9-1.1c-1.9,0-3.5,0.6-5,1.6c-1.6,1.1-2.8,2.6-3.5,4.5
			c-1,2.6-1.2,6.4-1.2,9.1v15.6h-6.7V64.4h6.7V68.2z M200.3,84.1L200.3,84.1c0.3,3,1.3,5.6,3.4,7.8c2.3,2.3,5,3.5,8.3,3.5
			c1.6,0,3.2-0.3,4.7-0.8c1.4-0.5,2.7-1.2,3.8-2.2c1.4-1.2,2.6-3.1,3.5-4.6l0.6-0.9l5.7,3l-0.5,1c-1.1,2.3-2.6,4.4-4.5,6.1
			c-1.7,1.5-3.6,2.8-5.7,3.6c-2.3,0.9-4.7,1.2-7.2,1.2c-5.5,0-10.3-1.7-14-5.9c-3.3-3.8-5-8.2-5-13.1c0-4.6,1.4-8.7,4.2-12.3
			c3.7-4.7,8.5-6.9,14.4-6.9c6.1,0,11.1,2.3,14.9,7.1c2.8,3.6,4,7.9,4,12.4l0,1.2H200.3z M266.6,96.8L266.6,96.8
			c-1.3,1.3-2.9,2.3-4.5,3.2c-2.5,1.2-5.2,1.8-8,1.8c-5.2,0-9.6-1.9-13.2-5.6c-3.7-3.8-5.5-8.4-5.5-13.6c0-5.2,1.9-9.7,5.5-13.4
			c3.7-3.7,8.1-5.6,13.3-5.6c2.9,0,5.6,0.6,8.2,1.9c1.6,0.9,3,2,4.3,3.2V51.2h6.6v49.7h-6.6V96.8z M287.7,68.7L287.7,68.7
			c1.3-1.3,2.7-2.4,4.3-3.3c2.5-1.3,5.3-1.9,8.1-1.9c5.2,0,9.7,1.9,13.3,5.6c3.7,3.7,5.5,8.2,5.5,13.4c0,5.3-1.8,9.8-5.5,13.6
			c-3.6,3.7-8,5.6-13.2,5.6c-2.8,0-5.5-0.6-8-1.8c-1.7-0.8-3.2-1.9-4.5-3.2v16.6H281v-49h6.7V68.7z M354.6,96.8L354.6,96.8
			c-1.4,1.3-2.9,2.3-4.6,3.2c-2.5,1.2-5.2,1.8-8,1.8c-5.2,0-9.6-1.9-13.2-5.6c-3.7-3.8-5.5-8.4-5.5-13.6c0-5.2,1.9-9.7,5.5-13.4
			c3.7-3.7,8.1-5.6,13.3-5.6c2.9,0,5.6,0.6,8.2,1.9c1.6,0.9,3,2,4.3,3.2v-4.3h6.6v36.5h-6.6V96.8z M374,67.2L374,67.2
			c0.7-0.8,1.6-1.5,2.5-2.1c1.6-1.1,3.4-1.7,5.3-1.7c1.6,0,3.1,0.6,4.5,1.3l1.1,0.6l-3.5,5.6l-0.9-0.4c-0.5-0.2-1.3-0.5-1.9-0.5
			c-1.3,0-2.5,0.6-3.5,1.5c-1.4,1.3-2.3,3.3-2.8,5.1c-0.8,3-0.8,8.4-0.8,11.5v12.7h-6.8V64.4h6.8V67.2z M397.5,76.8L397.5,76.8
			l14.2-12.4h10l-20.1,17.5l21.1,19h-9.7l-15.6-13.9v13.9h-6.7V51.2h6.7V76.8z M223.4,78L223.4,78c-0.4-1.3-1.1-2.7-1.9-3.8
			c-1.1-1.4-2.5-2.3-4-3.1c-1.7-0.8-3.5-1.2-5.3-1.2c-3,0-5.6,0.9-7.9,2.9c-1.5,1.3-2.5,3.2-3.2,5.1H223.4z M254.5,70L254.5,70
			c-2.2,0-4.3,0.5-6.2,1.6c-1.9,1.1-3.4,2.7-4.5,4.7c-1.1,2-1.7,4.1-1.7,6.3c0,2.3,0.6,4.4,1.7,6.4c1.1,2,2.6,3.6,4.6,4.7
			c1.9,1.1,3.9,1.7,6.1,1.7c2.2,0,4.3-0.6,6.3-1.7c1.9-1.1,3.5-2.6,4.5-4.5c1.1-2,1.6-4.2,1.6-6.4c0-3.5-1.1-6.6-3.6-9.1
			C260.9,71.2,258,70,254.5,70z M299.8,70L299.8,70c-3.5,0-6.4,1.2-8.8,3.6c-2.5,2.5-3.6,5.6-3.6,9.1c0,2.3,0.5,4.5,1.6,6.4
			c1.1,1.9,2.6,3.4,4.6,4.5c2,1.1,4.1,1.7,6.3,1.7c2.2,0,4.2-0.6,6.1-1.7c2-1.2,3.5-2.7,4.6-4.7c1.1-2,1.7-4.1,1.7-6.4
			c0-2.3-0.6-4.4-1.7-6.3c-1.1-2-2.6-3.5-4.5-4.7C304.1,70.6,302,70,299.8,70z M342.5,70c-2.2,0-4.3,0.5-6.2,1.6
			c-1.9,1.1-3.4,2.7-4.5,4.7c-1.1,2-1.7,4.1-1.7,6.3c0,2.3,0.6,4.4,1.7,6.4c1.1,2,2.6,3.6,4.6,4.7c1.9,1.1,3.9,1.7,6.1,1.7
			c2.2,0,4.3-0.6,6.3-1.7c1.9-1.1,3.5-2.6,4.5-4.5c1.1-2,1.6-4.2,1.6-6.4c0-3.5-1.1-6.6-3.6-9.1C348.9,71.2,346,70,342.5,70z"/>
	</g>
</g>
</svg>
