<?xml version="1.0" encoding="UTF-8"?>
<svg width="148px" height="20px" viewBox="0 0 148 20" version="1.1" xmlns="http://www.w3.org/2000/svg" xmlns:xlink="http://www.w3.org/1999/xlink">
    <g id="Page-1" stroke="none" stroke-width="1" fill="none" fill-rule="evenodd">
        <g id="payment" transform="translate(0.000000, -1.000000)">
            <path d="M17.47,4.24 L15.27,17.77 L18.79,17.77 L21,4.24 L17.47,4.24 Z M12.31,4.24 L9,13.54 L8.61,11.54 L8.52,11.09 C7.79451128,9.53871441 6.72796825,8.17135156 5.4,7.09 C4.88481233,6.70612529 4.34350128,6.35861697 3.78,6.05 L6.83,17.77 L10.5,17.77 L16.1,4.24 L12.31,4.24 Z M26.05,8 C26.05,6.47 29.48,6.66 30.99,7.49 L31.49,4.59 C30.4714768,4.22584317 29.4013364,4.02666877 28.32,4 C26.58,4 22.43,4.76 22.43,8.48 C22.43,11.97 27.3,12.02 27.3,13.85 C27.3,15.68 22.93,15.36 21.49,14.2 L20.96,17.2 C22.227106,17.7249622 23.5886564,17.9836568 24.96,17.96 C27.36,17.96 30.96,16.72 30.96,13.33 C30.96,9.94 26.05,9.53 26.05,8 Z M40.42,4.24 L37.59,4.24 C36.8888598,4.18085877 36.2313714,4.58671582 35.97,5.24 L30.71,17.77 L34.38,17.77 L35.12,15.77 L39.59,15.77 L40.01,17.77 L43.24,17.77 L40.42,4.24 Z M36.13,13 L38,7.92 L39,13 L36.13,13 Z" id="Shape" fill="#005BAC" fill-rule="nonzero"></path>
            <path d="M7.42,5.52 C7.27258993,4.72189372 6.52416972,4.18038969 5.72,4.29 L0.07,4.29 L-8.8817842e-16,4.52 C1.94025835,5.00816545 3.75398857,5.90480276 5.32,7.15 C6.8015306,8.31468531 7.94439459,9.85461685 8.63,11.61 L7.42,5.52 Z" id="Path" fill="#F6AC1D"></path>
            <polygon id="Path" fill="#FF5F00" points="75.04 3.14 83.79 3.14 83.79 18.86 75.04 18.86"></polygon>
            <path d="M75.6,11 C75.6005463,7.93281224 77.0086441,5.03552202 79.42,3.14 C75.3204308,-0.0845067089 69.4310484,0.383359862 65.8920122,4.21469558 C62.352976,8.0460313 62.352976,13.9539687 65.8920122,17.7853044 C69.4310484,21.6166401 75.3204308,22.0845067 79.42,18.86 C77.0086441,16.964478 75.6005463,14.0671878 75.6,11 Z" id="Path" fill="#EB001B"></path>
            <path d="M95.6,11 C95.5993182,14.82831 93.4130544,18.3202504 89.9695538,19.993051 C86.5260533,21.6658517 82.4297335,21.2258957 79.42,18.86 C83.7346242,15.4493464 84.48519,9.19463134 81.1,4.86 C80.6068796,4.23689201 80.043108,3.6731204 79.42,3.18 C82.4240603,0.818510223 86.5112477,0.375373082 89.9516232,2.03815038 C93.3919988,3.70092768 95.5840611,7.17890616 95.6,11 Z" id="Path" fill="#F79E1B"></path>
            <path d="M145.2,1 L117.2,1 C116.341546,1.05806736 115.658067,1.7415458 115.6,2.6 L115.6,18.6 C115.504995,19.2611139 115.727096,19.9283429 116.199377,20.4006233 C116.671657,20.8729037 117.338886,21.0950054 118,21 L145.2,21 C145.861114,21.0950054 146.528343,20.8729037 147.000623,20.4006233 C147.472904,19.9283429 147.695005,19.2611139 147.6,18.6 L147.6,3.4 C147.695005,2.73888612 147.472904,2.07165714 147.000623,1.59937672 C146.528343,1.1270963 145.861114,0.904994586 145.2,1 Z" id="Path" fill="#306FC5"></path>
            <path d="M118.3,8.33 L117.68,6.81 L117.06,8.33 L118.3,8.33 Z M132,7.72 C131.861159,7.79042338 131.704606,7.81825506 131.55,7.8 L130.45,7.8 L130.45,7 L131.57,7 C131.711638,6.96881873 131.858362,6.96881873 132,7 C132.126811,7.05868106 132.202919,7.19086809 132.19,7.33 C132.2017,7.47666339 132.127686,7.61690128 132,7.69 L132,7.72 Z M139.85,8.33 L139.22,6.81 L138.6,8.33 L139.85,8.33 Z M125.17,10 L124.24,10 L124.24,7 L122.93,10 L122.13,10 L120.82,7 L120.82,10 L119,10 L118.66,9.15 L116.77,9.15 L116.42,10 L115.42,10 L117,6.17 L118.34,6.17 L119.88,9.76 L119.88,6.17 L121.36,6.17 L122.55,8.74 L123.63,6.17 L125.14,6.17 L125.14,10 L125.17,10 Z M128.87,10 L125.87,10 L125.87,6.17 L128.87,6.17 L128.87,7 L126.75,7 L126.75,7.68 L128.82,7.68 L128.82,8.46 L126.75,8.46 L126.75,9.22 L128.87,9.22 L128.87,10 Z M133.14,7.23 C133.150869,7.66274447 132.89751,8.0586176 132.5,8.23 C132.674979,8.296275 132.829952,8.40647775 132.95,8.55 C133.072551,8.7616831 133.125052,9.00668778 133.1,9.25 L133.1,10 L132.18,10 L132.18,9.48 C132.215416,9.22466296 132.166244,8.9647528 132.04,8.74 C131.848456,8.60444817 131.612354,8.54721147 131.38,8.58 L130.38,8.58 L130.38,10 L129.48,10 L129.48,6.17 L131.56,6.17 C131.936129,6.13178008 132.315671,6.19388682 132.66,6.35 C132.961948,6.51840325 133.140737,6.84488803 133.12,7.19 L133.14,7.23 Z M134.59,10 L133.66,10 L133.66,6.17 L134.59,6.17 L134.59,10 Z M145.3,10 L144,10 L142.3,7.12 L142.3,10 L140.46,10 L140.11,9.15 L138.23,9.15 L137.89,10 L136.83,10 C136.353307,10.0272079 135.883323,9.87766754 135.51,9.58 C135.132475,9.18048673 134.946469,8.63705596 135,8.09 C134.956416,7.55069596 135.133198,7.01674378 135.49,6.61 C135.868009,6.283449 136.36254,6.12462148 136.86,6.17 L137.74,6.17 L137.74,7 L136.88,7 C136.624117,6.96919757 136.367747,7.05343345 136.18,7.23 C135.991442,7.47541141 135.898985,7.7812295 135.92,8.09 C135.894233,8.40701611 135.982928,8.72276989 136.17,8.98 C136.347529,9.12241917 136.573331,9.19051842 136.8,9.17 L137.21,9.17 L138.49,6.17 L139.84,6.17 L141.38,9.75 L141.38,6.17 L142.76,6.17 L144.35,8.81 L144.35,6.17 L145.27,6.17 L145.27,10 L145.3,10 Z M115.4,10.74 L116.94,10.74 L117.29,9.9 L118.07,9.9 L118.42,10.74 L121.42,10.74 L121.42,10.06 L121.7,10.71 L123.28,10.71 L123.55,10.05 L123.55,10.7 L131.11,10.7 L131.11,9.32 L131.26,9.32 C131.36,9.32 131.39,9.32 131.39,9.5 L131.39,10.7 L135.3,10.7 L135.3,10.38 C135.750405,10.6021799 136.247919,10.711976 136.75,10.7 L138.4,10.7 L138.75,9.86 L139.53,9.86 L139.88,10.7 L143.05,10.7 L143.05,9.9 L143.53,10.7 L146.07,10.7 L146.07,5.42 L143.6,5.42 L143.6,6 L143.24,5.38 L140.66,5.38 L140.66,6 L140.34,5.38 L136.85,5.38 C136.328661,5.35540913 135.809482,5.46199551 135.34,5.69 L135.34,5.42 L132.93,5.42 L132.93,5.73 C132.646906,5.50573438 132.290308,5.39518899 131.93,5.42 L123.14,5.42 L122.55,6.78 L121.95,5.42 L119.18,5.42 L119.18,6 L118.87,5.38 L116.51,5.38 L115.4,7.93 L115.4,10.7 L115.4,10.74 Z M147.6,13.53 L146,13.53 C145.875713,13.5171163 145.750403,13.5414823 145.64,13.6 C145.546097,13.6563471 145.491944,13.7607854 145.5,13.87 C145.493589,14.0007225 145.575532,14.1195393 145.7,14.16 C145.815995,14.1777019 145.934005,14.1777019 146.05,14.16 L146.54,14.16 C146.900765,14.1311649 147.258805,14.2421572 147.54,14.47 C147.572122,14.4946672 147.599269,14.5252078 147.62,14.56 L147.6,13.53 Z M147.6,16.03 C147.295893,16.3861771 146.835718,16.5694987 146.37,16.52 L144.63,16.52 L144.63,15.7 L146.37,15.7 C146.497102,15.7172887 146.625987,15.6850674 146.73,15.61 C146.80338,15.5481805 146.843998,15.455866 146.84,15.36 C146.845594,15.2638398 146.804675,15.1708418 146.73,15.11 C146.636891,15.044692 146.522889,15.0161915 146.41,15.03 C145.56,15.03 144.5,15.03 144.5,13.86 C144.5,13.31 144.85,12.73 145.8,12.73 L147.6,12.73 L147.6,11.97 L145.93,11.97 C145.526637,11.9488626 145.127112,12.0575054 144.79,12.28 L144.79,11.97 L142.32,11.97 C141.932254,11.9488078 141.548562,12.0579312 141.23,12.28 L141.23,11.97 L136.81,11.97 L136.81,12.28 C136.438158,12.0699619 136.017005,11.9629477 135.59,11.97 L132.67,11.97 L132.67,12.28 C132.28846,12.0400729 131.839037,11.9312284 131.39,11.97 L128.12,11.97 L127.38,12.78 L126.68,11.97 L121.79,11.97 L121.79,17.26 L126.58,17.26 L127.35,16.44 L128.08,17.26 L131,17.26 L131,16 L131.29,16 C131.71884,16.0295402 132.14894,15.9646837 132.55,15.81 L132.55,17.24 L135,17.24 L135,15.84 L135.12,15.84 C135.27,15.84 135.28,15.84 135.28,16 L135.28,17.22 L142.68,17.22 C143.115497,17.2383452 143.545753,17.1194127 143.91,16.88 L143.91,17.22 L146.26,17.22 C146.717245,17.2430644 147.174133,17.1680529 147.6,17 L147.6,16 L147.6,16.03 Z M144,14.48 C144.203685,14.6937332 144.302511,14.9865507 144.27,15.28 C144.27,16.1 143.76,16.48 142.85,16.48 L141.09,16.48 L141.09,15.66 L142.84,15.66 C142.970224,15.6768713 143.102074,15.6447996 143.21,15.57 C143.279998,15.5057047 143.319888,15.4150452 143.32,15.32 C143.321158,15.2246913 143.28105,15.1335368 143.21,15.07 C143.116501,15.0055503 143.002829,14.9771323 142.89,14.99 C142,15 141,15 141,13.82 C140.993203,13.4892791 141.13295,13.1724692 141.381776,12.9545055 C141.630602,12.7365418 141.963053,12.6397209 142.29,12.69 L144.11,12.69 L144.11,13.49 L142.45,13.49 C142.325661,13.4758539 142.199979,13.500292 142.09,13.56 C141.996097,13.6163471 141.941944,13.7207854 141.95,13.83 C141.943589,13.9607225 142.025532,14.0795393 142.15,14.12 C142.265946,14.1383418 142.384054,14.1383418 142.5,14.12 L143,14.12 C143.36065,14.0921953 143.718317,14.203072 144,14.43 L144,14.48 Z M135.83,14.24 C135.691159,14.3104234 135.534606,14.3382551 135.38,14.32 L134.28,14.32 L134.28,13.47 L135.4,13.47 C135.547009,13.4546288 135.695457,13.4787946 135.83,13.54 C135.954467,13.6063304 136.028736,13.739233 136.02,13.88 C136.027027,14.0256632 135.954223,14.1636073 135.83,14.24 Z M136.38,14.72 C136.552242,14.7811788 136.704421,14.8883961 136.82,15.03 C136.947384,15.2397909 137.000236,15.4864335 136.97,15.73 L136.97,16.48 L136.06,16.48 L136.06,16 C136.096168,15.744645 136.04695,15.4844947 135.92,15.26 C135.728692,15.1153781 135.487116,15.0540826 135.25,15.09 L134.25,15.09 L134.25,16.48 L133.34,16.48 L133.34,12.69 L135.43,12.69 C135.802713,12.6567542 136.177764,12.7186893 136.52,12.87 C136.829486,13.0319136 137.013919,13.3615382 136.99,13.71 C136.998125,14.1419742 136.745661,14.5364486 136.35,14.71 L136.38,14.72 Z M137.52,12.72 L140.52,12.72 L140.52,13.5 L138.4,13.5 L138.4,14.19 L140.47,14.19 L140.47,14.96 L138.4,14.96 L138.4,15.72 L140.52,15.72 L140.52,16.51 L137.52,16.51 L137.52,12.69 L137.52,12.72 Z M131.41,14.47 L130.24,14.47 L130.24,13.47 L131.42,13.47 C131.75,13.47 131.98,13.6 131.98,13.94 C131.98,14.28 131.76,14.44 131.41,14.44 L131.41,14.47 Z M129.34,16.16 L127.95,14.62 L129.34,13.12 L129.34,16.12 L129.34,16.16 Z M125.75,15.72 L123.52,15.72 L123.52,14.96 L125.52,14.96 L125.52,14.19 L123.52,14.19 L123.52,13.5 L125.79,13.5 L126.79,14.6 L125.79,15.72 L125.75,15.72 Z M132.95,13.97 C132.95,15.02 132.16,15.24 131.37,15.24 L130.24,15.24 L130.24,16.51 L128.48,16.51 L127.37,15.25 L126.21,16.51 L122.62,16.51 L122.62,12.69 L126.26,12.69 L127.38,13.93 L128.53,12.69 L131.42,12.69 C132.14,12.69 132.95,12.89 132.95,13.94 L132.95,13.97 Z" id="Shape" fill="#FFFFFF" fill-rule="nonzero"></path>
        </g>
    </g>
</svg>