<svg xmlns="http://www.w3.org/2000/svg" xmlns:xlink="http://www.w3.org/1999/xlink"><symbol id="cancel" viewBox="0 0 490.442 490.442">
<g>
	<g>
		<path d="M270.421,245.342l42-42c7.3-7.1,7.3-18.5,0.2-25.5c-7-7-18.4-7-25.5,0l-42,42l-42-42c-7-7-18.4-7-25.5,0
			c-7,7-7,18.4,0,25.5l42,42l-42,42c-7,7-7,18.4,0,25.5c3.5,3.5,8.1,5.3,12.7,5.3c4.6,0,9.2-1.8,12.7-5.3l42-42l42,42
			c3.5,3.5,8.1,5.3,12.7,5.3c4.6,0,9.2-1.8,12.7-5.3c7-7,7-18.4,0-25.5L270.421,245.342z"/>
	</g>
</g>
<g>
	<g>
		<path d="M418.621,71.842c-7-7-18.4-7-25.4,0l-56,55.9c-7,7-7,18.4,0,25.5c7,7,18.4,7,25.5,0l42.7-42.7
			c69.2,82.1,65.1,205.3-12.2,282.6c-39.5,39.5-92.1,61.3-148,61.3c-55.9,0-108.4-21.7-148-61.2c-81.6-81.6-81.6-214.3,0-295.9
			c50.1-50.1,121.6-71.4,191.1-56.8c9.7,2,19.3-4.2,21.3-13.9c2-9.7-4.2-19.3-13.9-21.3c-81.4-17.2-165.1,7.7-223.9,66.5
			c-46.3,46.3-71.8,107.9-71.8,173.4s25.5,127.1,71.8,173.4c46.3,46.3,107.9,71.8,173.4,71.8s127.1-25.5,173.4-71.8
			s71.8-107.9,71.8-173.4S464.921,118.142,418.621,71.842z"/>
	</g>
</g>
<g>
</g>
<g>
</g>
<g>
</g>
<g>
</g>
<g>
</g>
<g>
</g>
<g>
</g>
<g>
</g>
<g>
</g>
<g>
</g>
<g>
</g>
<g>
</g>
<g>
</g>
<g>
</g>
<g>
</g>
</symbol><symbol id="checked" viewBox="0 0 489.544 489.544">
<g>
	<g>
		<path d="M138.943,205.941c-7-7.1-18.4-7.1-25.5-0.1c-7.1,7-7.1,18.4-0.1,25.5l85.4,86c3.4,3.4,7.9,5.3,12.7,5.3c0,0,0,0,0.1,0
			c4.8,0,9.3-1.9,12.7-5.2l260-258.6c7-7,7.1-18.4,0.1-25.5s-18.4-7.1-25.5-0.1l-91.9,91.3c-39.1-48.1-97.9-76.3-160.4-76.3
			c-29.2,0-57.4,6-83.8,17.7c-25.5,11.4-48.2,27.5-67.3,48.1c-19.1,20.5-33.6,44.2-43.1,70.4c-9.9,27.3-13.9,56-11.8,85.4
			c7.1,101.7,89.2,183.9,190.9,191.2c5,0.4,10.1,0.5,15.1,0.5c47.3,0,93-16,129.8-45.8c40.2-32.4,66.6-78.3,74.5-129.1
			c1.6-10.4,2.4-21.1,2.4-31.8c0-9.9-8.1-18-18-18c-9.9,0-18,8.1-18,18c0,8.8-0.7,17.6-2,26.3c-13.4,87-93,150.2-181.2,143.9
			c-83.9-6-151.7-73.8-157.6-157.8c-3.4-48,12.7-93.7,45.3-128.7c32.2-34.5,77.7-54.3,124.8-54.3c52.8,0,102.4,24.5,134.7,65.9
			l-129.6,129L138.943,205.941z"/>
	</g>
</g>
<g>
</g>
<g>
</g>
<g>
</g>
<g>
</g>
<g>
</g>
<g>
</g>
<g>
</g>
<g>
</g>
<g>
</g>
<g>
</g>
<g>
</g>
<g>
</g>
<g>
</g>
<g>
</g>
<g>
</g>
</symbol><symbol id="checkmark-for-verification" viewBox="0 0 97.619 97.618">
<g>
	<path d="M96.939,17.358L83.968,5.959c-0.398-0.352-0.927-0.531-1.449-0.494C81.99,5.5,81.496,5.743,81.146,6.142L34.1,59.688
		L17.372,37.547c-0.319-0.422-0.794-0.701-1.319-0.773c-0.524-0.078-1.059,0.064-1.481,0.385L0.794,47.567
		c-0.881,0.666-1.056,1.92-0.39,2.801l30.974,40.996c0.362,0.479,0.922,0.771,1.522,0.793c0.024,0,0.049,0,0.073,0
		c0.574,0,1.122-0.246,1.503-0.68l62.644-71.297C97.85,19.351,97.769,18.086,96.939,17.358z"/>
</g>
<g>
</g>
<g>
</g>
<g>
</g>
<g>
</g>
<g>
</g>
<g>
</g>
<g>
</g>
<g>
</g>
<g>
</g>
<g>
</g>
<g>
</g>
<g>
</g>
<g>
</g>
<g>
</g>
<g>
</g>
</symbol><symbol id="envelope" viewBox="0 0 512 512">
<g>
	<g>
		<g>
			<path d="M10.688,95.156C80.958,154.667,204.26,259.365,240.5,292.01c4.865,4.406,10.083,6.646,15.5,6.646
				c5.406,0,10.615-2.219,15.469-6.604c36.271-32.677,159.573-137.385,229.844-196.896c4.375-3.698,5.042-10.198,1.5-14.719
				C494.625,69.99,482.417,64,469.333,64H42.667c-13.083,0-25.292,5.99-33.479,16.438C5.646,84.958,6.313,91.458,10.688,95.156z"/>
			<path d="M505.813,127.406c-3.781-1.76-8.229-1.146-11.375,1.542c-46.021,39.01-106.656,90.552-152.385,129.885
				c-2.406,2.063-3.76,5.094-3.708,8.271c0.052,3.167,1.521,6.156,4,8.135c42.49,34.031,106.521,80.844,152.76,114.115
				c1.844,1.333,4.031,2.01,6.229,2.01c1.667,0,3.333-0.385,4.865-1.177c3.563-1.823,5.802-5.49,5.802-9.49V137.083
				C512,132.927,509.583,129.146,505.813,127.406z"/>
			<path d="M16.896,389.354c46.25-33.271,110.292-80.083,152.771-114.115c2.479-1.979,3.948-4.969,4-8.135
				c0.052-3.177-1.302-6.208-3.708-8.271C124.229,219.5,63.583,167.958,17.563,128.948c-3.167-2.688-7.625-3.281-11.375-1.542
				C2.417,129.146,0,132.927,0,137.083v243.615c0,4,2.24,7.667,5.802,9.49c1.531,0.792,3.198,1.177,4.865,1.177
				C12.865,391.365,15.052,390.688,16.896,389.354z"/>
			<path d="M498.927,418.375c-44.656-31.948-126.917-91.51-176.021-131.365c-4-3.26-9.792-3.156-13.729,0.24
				c-9.635,8.406-17.698,15.49-23.417,20.635c-17.563,15.854-41.938,15.854-59.542-0.021c-5.698-5.135-13.76-12.24-23.396-20.615
				c-3.906-3.417-9.708-3.521-13.719-0.24c-48.938,39.719-131.292,99.354-176.021,131.365c-2.49,1.792-4.094,4.552-4.406,7.604
				c-0.302,3.052,0.708,6.083,2.802,8.333C19.552,443.01,30.927,448,42.667,448h426.667c11.74,0,23.104-4.99,31.198-13.688
				c2.083-2.24,3.104-5.271,2.802-8.323C503.021,422.938,501.417,420.167,498.927,418.375z"/>
		</g>
	</g>
</g>
<g>
</g>
<g>
</g>
<g>
</g>
<g>
</g>
<g>
</g>
<g>
</g>
<g>
</g>
<g>
</g>
<g>
</g>
<g>
</g>
<g>
</g>
<g>
</g>
<g>
</g>
<g>
</g>
<g>
</g>
</symbol><symbol id="error" viewBox="0 0 52 52">
<g>
	<path d="M26,0C11.664,0,0,11.663,0,26s11.664,26,26,26s26-11.663,26-26S40.336,0,26,0z M26,50C12.767,50,2,39.233,2,26
		S12.767,2,26,2s24,10.767,24,24S39.233,50,26,50z"/>
	<path d="M35.707,16.293c-0.391-0.391-1.023-0.391-1.414,0L26,24.586l-8.293-8.293c-0.391-0.391-1.023-0.391-1.414,0
		s-0.391,1.023,0,1.414L24.586,26l-8.293,8.293c-0.391,0.391-0.391,1.023,0,1.414C16.488,35.902,16.744,36,17,36
		s0.512-0.098,0.707-0.293L26,27.414l8.293,8.293C34.488,35.902,34.744,36,35,36s0.512-0.098,0.707-0.293
		c0.391-0.391,0.391-1.023,0-1.414L27.414,26l8.293-8.293C36.098,17.316,36.098,16.684,35.707,16.293z"/>
</g>
<g>
</g>
<g>
</g>
<g>
</g>
<g>
</g>
<g>
</g>
<g>
</g>
<g>
</g>
<g>
</g>
<g>
</g>
<g>
</g>
<g>
</g>
<g>
</g>
<g>
</g>
<g>
</g>
<g>
</g>
</symbol><symbol id="facebook" viewBox="0 0 512 512">
<path d="M134.9,272.7h56.1v231.1c0,4.6,3.7,8.3,8.3,8.3h95.2c4.6,0,8.3-3.7,8.3-8.3v-230h64.5c4.2,0,7.7-3.1,8.2-7.3l9.8-85.1
	c0.3-2.3-0.5-4.7-2-6.4c-1.6-1.8-3.8-2.8-6.2-2.8h-74.3v-53.3c0-16.1,8.7-24.2,25.7-24.2c2.4,0,48.6,0,48.6,0c4.6,0,8.3-3.7,8.3-8.3
	V8.3c0-4.6-3.7-8.3-8.3-8.3h-67C309.6,0,308.6,0,307,0c-11.6,0-52,2.3-83.9,31.6c-35.3,32.5-30.4,71.5-29.3,78.2v62.4h-58.9
	c-4.6,0-8.3,3.7-8.3,8.3v84C126.7,269,130.4,272.7,134.9,272.7z"/>
</symbol><symbol id="icon" viewBox="0 0 41.2 41.2">
<g>
	<path d="M33.5,36.8c0.1,0.3,0.2,0.5,0.2,0.8c0,0.4-0.1,0.7-0.3,1.1c-0.2,0.3-0.5,0.6-0.9,0.8l-1.7,0.8c-0.7,0.3-1.4,0.5-2,0.7
		s-1.4,0.2-2.1,0.2c-1.1,0-2.2-0.2-3.3-0.6s-2.1-0.9-3.1-1.6s-1.9-1.5-2.8-2.5c-0.9-1-1.6-2.1-2.3-3.3c-0.4-0.7-0.9-1.4-1.4-2.3
		c-0.4-0.7-0.9-1.6-1.4-2.6c-0.5-1-1.1-2.1-1.6-3.4c-0.5-1.2-1-2.3-1.3-3.2c-0.3-0.9-0.6-1.7-0.7-2.3c-0.2-0.7-0.3-1.3-0.4-1.8
		c-0.3-0.9-0.5-1.9-0.6-2.8c-0.1-0.9-0.2-1.9-0.2-2.8c0-1.2,0.1-2.4,0.4-3.5S8.5,6.3,9,5.4c0.5-1,1.1-1.8,1.9-2.6s1.7-1.4,2.7-1.8
		l1.7-0.8C15.6,0.1,15.8,0,16.1,0c0.4,0,0.7,0.1,1.1,0.3c0.3,0.2,0.6,0.5,0.7,0.9l3.3,7.5c0.1,0.3,0.2,0.5,0.2,0.8
		c0,0.4-0.1,0.8-0.3,1.1s-0.5,0.6-0.9,0.8l-3.4,1.6c-0.4,0.2-0.8,0.5-1,0.9c-0.2,0.4-0.4,0.8-0.4,1.3c0,0.3,0.1,0.7,0.2,1l5.5,12.7
		c0.2,0.5,0.5,0.8,0.9,1.1c0.4,0.2,0.8,0.3,1.2,0.3c0.3,0,0.6-0.1,0.9-0.2l3.4-1.6c0.3-0.1,0.5-0.2,0.8-0.2c0.4,0,0.7,0.1,1.1,0.3
		s0.6,0.5,0.7,0.9L33.5,36.8z"/>
</g>
</symbol><symbol id="instagram" viewBox="0 0 512 512"><path d="m437 0h-362c-41.351562 0-75 33.648438-75 75v362c0 41.351562 33.648438 75 75 75h362c41.351562 0 75-33.648438 75-75v-362c0-41.351562-33.648438-75-75-75zm-180 390c-74.441406 0-135-60.558594-135-135s60.558594-135 135-135 135 60.558594 135 135-60.558594 135-135 135zm150-240c-24.8125 0-45-20.1875-45-45s20.1875-45 45-45 45 20.1875 45 45-20.1875 45-45 45zm0 0"/><path d="m407 90c-8.277344 0-15 6.722656-15 15s6.722656 15 15 15 15-6.722656 15-15-6.722656-15-15-15zm0 0"/><path d="m257 150c-57.890625 0-105 47.109375-105 105s47.109375 105 105 105 105-47.109375 105-105-47.109375-105-105-105zm0 0"/></symbol><symbol id="magnifying-glass" viewBox="0 0 515.558 515.558"><path d="m378.344 332.78c25.37-34.645 40.545-77.2 40.545-123.333 0-115.484-93.961-209.445-209.445-209.445s-209.444 93.961-209.444 209.445 93.961 209.445 209.445 209.445c46.133 0 88.692-15.177 123.337-40.547l137.212 137.212 45.564-45.564c0-.001-137.214-137.213-137.214-137.213zm-168.899 21.667c-79.958 0-145-65.042-145-145s65.042-145 145-145 145 65.042 145 145-65.043 145-145 145z"/></symbol><symbol id="next" viewBox="0 0 477.175 477.175">
<g>
	<path d="M360.731,229.075l-225.1-225.1c-5.3-5.3-13.8-5.3-19.1,0s-5.3,13.8,0,19.1l215.5,215.5l-215.5,215.5
		c-5.3,5.3-5.3,13.8,0,19.1c2.6,2.6,6.1,4,9.5,4c3.4,0,6.9-1.3,9.5-4l225.1-225.1C365.931,242.875,365.931,234.275,360.731,229.075z
		"/>
</g>
<g>
</g>
<g>
</g>
<g>
</g>
<g>
</g>
<g>
</g>
<g>
</g>
<g>
</g>
<g>
</g>
<g>
</g>
<g>
</g>
<g>
</g>
<g>
</g>
<g>
</g>
<g>
</g>
<g>
</g>
</symbol><symbol id="placeholder-filled-point" viewBox="0 0 97.713 97.713">
<g>
	<path d="M48.855,0C29.021,0,12.883,16.138,12.883,35.974c0,5.174,1.059,10.114,3.146,14.684
		c8.994,19.681,26.238,40.46,31.31,46.359c0.38,0.441,0.934,0.695,1.517,0.695s1.137-0.254,1.517-0.695
		c5.07-5.898,22.314-26.676,31.311-46.359c2.088-4.57,3.146-9.51,3.146-14.684C84.828,16.138,68.69,0,48.855,0z M48.855,54.659
		c-10.303,0-18.686-8.383-18.686-18.686c0-10.304,8.383-18.687,18.686-18.687s18.686,8.383,18.686,18.687
		C67.542,46.276,59.159,54.659,48.855,54.659z"/>
</g>
<g>
</g>
<g>
</g>
<g>
</g>
<g>
</g>
<g>
</g>
<g>
</g>
<g>
</g>
<g>
</g>
<g>
</g>
<g>
</g>
<g>
</g>
<g>
</g>
<g>
</g>
<g>
</g>
<g>
</g>
</symbol><symbol id="right-arr ow" viewBox="0 0 492.004 492.004">
<g>
	<g>
		<path d="M382.678,226.804L163.73,7.86C158.666,2.792,151.906,0,144.698,0s-13.968,2.792-19.032,7.86l-16.124,16.12
			c-10.492,10.504-10.492,27.576,0,38.064L293.398,245.9l-184.06,184.06c-5.064,5.068-7.86,11.824-7.86,19.028
			c0,7.212,2.796,13.968,7.86,19.04l16.124,16.116c5.068,5.068,11.824,7.86,19.032,7.86s13.968-2.792,19.032-7.86L382.678,265
			c5.076-5.084,7.864-11.872,7.848-19.088C390.542,238.668,387.754,231.884,382.678,226.804z"/>
	</g>
</g>
<g>
</g>
<g>
</g>
<g>
</g>
<g>
</g>
<g>
</g>
<g>
</g>
<g>
</g>
<g>
</g>
<g>
</g>
<g>
</g>
<g>
</g>
<g>
</g>
<g>
</g>
<g>
</g>
<g>
</g>
</symbol><symbol id="youtube-logo" viewBox="0 0 511.627 511.627">
<g>
	<g>
		<path d="M459.954,264.376c-2.471-11.233-7.949-20.653-16.416-28.264c-8.474-7.611-18.227-12.085-29.27-13.418
			c-35.02-3.806-87.837-5.708-158.457-5.708c-70.618,0-123.341,1.903-158.174,5.708c-11.227,1.333-21.029,5.807-29.407,13.418
			c-8.376,7.614-13.896,17.035-16.562,28.264c-4.948,22.083-7.423,55.391-7.423,99.931c0,45.299,2.475,78.61,7.423,99.93
			c2.478,11.225,7.951,20.653,16.421,28.261c8.47,7.614,18.225,11.991,29.263,13.134c35.026,3.997,87.847,5.996,158.461,5.996
			c70.609,0,123.44-1.999,158.453-5.996c11.043-1.143,20.748-5.52,29.126-13.134c8.377-7.607,13.897-17.036,16.56-28.261
			c4.948-22.083,7.426-55.391,7.426-99.93C467.377,319.007,464.899,285.695,459.954,264.376z M165.025,293.218h-30.549v162.45
			h-28.549v-162.45h-29.98v-26.837h89.079V293.218z M242.11,455.668H216.7v-15.421c-10.278,11.615-19.989,17.419-29.125,17.419
			c-8.754,0-14.275-3.524-16.556-10.564c-1.521-4.568-2.286-11.519-2.286-20.844V314.627h25.41v103.924
			c0,6.088,0.096,9.421,0.288,9.993c0.571,3.997,2.568,5.995,5.996,5.995c5.138,0,10.566-3.997,16.274-11.991V314.627h25.41V455.668
			z M339.183,413.411c0,13.894-0.855,23.417-2.56,28.558c-3.244,10.462-9.996,15.697-20.273,15.697
			c-9.137,0-17.986-5.235-26.556-15.697v13.702h-25.406v-189.29h25.406v61.955c8.189-10.273,17.036-15.413,26.556-15.413
			c10.277,0,17.029,5.331,20.273,15.988c1.704,4.948,2.56,14.369,2.56,28.264V413.411z M435.685,390.003h-51.104v24.839
			c0,13.134,4.374,19.697,13.131,19.697c6.279,0,10.089-3.422,11.42-10.28c0.376-1.902,0.571-7.706,0.571-17.412h25.981v3.71
			c0,9.329-0.195,14.846-0.572,16.563c-0.567,5.133-2.56,10.273-5.995,15.413c-6.852,10.089-17.139,15.133-30.841,15.133
			c-13.127,0-23.407-4.855-30.833-14.558c-5.517-7.043-8.275-18.083-8.275-33.12v-49.396c0-15.036,2.662-26.076,7.987-33.119
			c7.427-9.705,17.61-14.558,30.557-14.558c12.755,0,22.85,4.853,30.263,14.558c5.146,7.043,7.71,18.083,7.71,33.119V390.003
			L435.685,390.003z"/>
		<path d="M302.634,336.043c-4.38,0-8.658,2.101-12.847,6.283v85.934c4.188,4.186,8.467,6.279,12.847,6.279
			c7.419,0,11.14-6.372,11.14-19.13v-60.236C313.773,342.418,310.061,336.043,302.634,336.043z"/>
		<path d="M397.428,336.043c-8.565,0-12.847,6.475-12.847,19.41v13.134h25.693v-13.134
			C410.274,342.511,405.99,336.043,397.428,336.043z"/>
		<path d="M148.473,113.917v77.375h28.549v-77.375L211.563,0h-29.121l-19.41,75.089L142.759,0h-30.262
			c5.33,15.99,11.516,33.785,18.559,53.391C140.003,79.656,145.805,99.835,148.473,113.917z"/>
		<path d="M249.82,193.291c13.134,0,23.219-4.854,30.262-14.561c5.332-7.043,7.994-18.274,7.994-33.689V95.075
			c0-15.225-2.669-26.363-7.994-33.406c-7.043-9.707-17.128-14.561-30.262-14.561c-12.756,0-22.75,4.854-29.98,14.561
			c-5.327,7.043-7.992,18.181-7.992,33.406v49.965c0,15.225,2.662,26.457,7.992,33.689
			C227.073,188.437,237.063,193.291,249.82,193.291z M237.541,89.935c0-13.134,4.093-19.701,12.279-19.701
			s12.275,6.567,12.275,19.701v59.955c0,13.328-4.089,19.985-12.275,19.985s-12.279-6.661-12.279-19.985V89.935z"/>
		<path d="M328.328,193.291c9.523,0,19.328-5.901,29.413-17.705v15.703h25.981V48.822h-25.981v108.777
			c-5.712,8.186-11.133,12.275-16.279,12.275c-3.429,0-5.428-2.093-5.996-6.28c-0.191-0.381-0.287-3.715-0.287-9.994V48.822h-25.981
			v112.492c0,9.705,0.767,16.84,2.286,21.411C313.961,189.768,319.574,193.291,328.328,193.291z"/>
	</g>
</g>
<g>
</g>
<g>
</g>
<g>
</g>
<g>
</g>
<g>
</g>
<g>
</g>
<g>
</g>
<g>
</g>
<g>
</g>
<g>
</g>
<g>
</g>
<g>
</g>
<g>
</g>
<g>
</g>
<g>
</g>
</symbol></svg>